<?xml version="1.0" standalone="yes"?>
<svg xmlns="http://www.w3.org/2000/svg" width="100" height="100">
<path style="fill:#010101; stroke:none;" d="M0 0L0 100L100 100L100 0L0 0z"/>
<path style="fill:#3e3e3e; stroke:none;" d="M40 4L41 5L40 4z"/>
<path style="fill:#333333; stroke:none;" d="M39 78C28.4926 77.971 25.7245 74.8593 21 66C29.6814 72.2013 40.5828 75.6754 48 65L26 56.6026L9 57L9 56L25 52L9 52L9 51L24 51L27 25L61 28.1265L73 25L75 50L91 51L91 52L74 53L89 55L89 56L74 56.5995L52 65C57.0034 72.3831 61.858 75.1461 61.9961 85C62.0301 87.4216 61.2841 92.2244 64.3179 93.2114C70.0582 95.0789 79.4005 86.5193 82.9599 82.9599C97.4616 68.4582 100.736 43.6068 89.9313 26C63.2967 -17.4013 -4.51063 9.13173 4.46451 59C6.66178 71.2086 13.7384 81.7235 24 88.6404C26.6762 90.4443 32.9902 95.134 36.3966 92.8789C39.4307 90.8701 38.1834 81.4301 39 78z"/>
<path style="fill:#282828; stroke:none;" d="M59 4L60 5L59 4z"/>
<path style="fill:#3e3e3e; stroke:none;" d="M36 5L37 6L36 5z"/>
<path style="fill:#282828; stroke:none;" d="M63 5L64 6L63 5M74 10L75 11L74 10z"/>
<path style="fill:#3e3e3e; stroke:none;" d="M22 12L23 13L22 12z"/>
<path style="fill:#282828; stroke:none;" d="M77 12L78 13L77 12M87 22L88 23L87 22M10 25L11 26L10 25M89 25L90 26L89 25M48 26L49 27L48 26M51 26L52 27L51 26z"/>
<path style="fill:#3e3e3e; stroke:none;" d="M57 27L58 28L57 27M26 30L27 31L26 30M72 35L73 36L72 35z"/>
<path style="fill:#282828; stroke:none;" d="M5 36L6 37L5 36M27 36L28 37L27 36z"/>
<path style="fill:#3e3e3e; stroke:none;" d="M27 37L28 38L27 37M4 40L5 41L4 40z"/>
<path style="fill:#282828; stroke:none;" d="M95 40L96 41L95 40z"/>
<path style="fill:#555555; stroke:none;" d="M24 50L25 51L24 50z"/>
<path style="fill:#282828; stroke:none;" d="M78 51L79 52L78 51M86 51L87 52L86 51z"/>
<path style="fill:#3e3e3e; stroke:none;" d="M74 52L75 53L74 52z"/>
<path style="fill:#282828; stroke:none;" d="M23 54L24 55L23 54z"/>
<path style="fill:#3e3e3e; stroke:none;" d="M24 54L25 55L24 54M75 54L76 55L75 54z"/>
<path style="fill:#282828; stroke:none;" d="M76 54L77 55L76 54M11 55L12 56L11 55z"/>
<path style="fill:#3e3e3e; stroke:none;" d="M88 55L89 56L88 55z"/>
<path style="fill:#010101; stroke:none;" d="M9 56L9 57L12 57L9 56z"/>
<path style="fill:#3e3e3e; stroke:none;" d="M72 56L73 57L72 56z"/>
<path style="fill:#010101; stroke:none;" d="M89.6667 56.3333L90.3333 56.6667L89.6667 56.3333z"/>
<path style="fill:#3e3e3e; stroke:none;" d="M4 59L5 60L4 59z"/>
<path style="fill:#555555; stroke:none;" d="M95 59L96 60L95 59M32 61L33 62L32 61M5 63L6 64L5 63z"/>
<path style="fill:#3e3e3e; stroke:none;" d="M36 63L37 64L36 63z"/>
<path style="fill:#555555; stroke:none;" d="M94 63L95 64L94 63z"/>
<path style="fill:#282828; stroke:none;" d="M59 64L60 65L59 64z"/>
<path style="fill:#010101; stroke:none;" d="M20 65L21 66L20 65z"/>
<path style="fill:#555555; stroke:none;" d="M6 66L7 67L6 66z"/>
<path style="fill:#282828; stroke:none;" d="M24 68L25 69L24 68M42 69L43 70L42 69z"/>
<path style="fill:#3e3e3e; stroke:none;" d="M26 70L27 71L26 70M59 72L60 73L59 72M60 74L61 75L60 74M89 74L90 75L89 74M25 75L26 76L25 75M12 77L13 78L12 77M30 77L31 78L30 77M87 77L88 78L87 77M61 78L62 79L61 78z"/>
<path style="fill:#282828; stroke:none;" d="M22 87L23 88L22 87M77 87L78 88L77 87z"/>
<path style="fill:#3e3e3e; stroke:none;" d="M25 89L26 90L25 89M74 89L75 90L74 89z"/>
</svg>
