<?xml version="1.0" standalone="yes"?>
<svg xmlns="http://www.w3.org/2000/svg" width="100" height="100">
<path style="fill:#47714d; stroke:none;" d="M0 0L0 100L100 100L100 0L0 0z"/>
<path style="fill:#e5f7f7; stroke:none;" d="M40 4L41 5L40 4z"/>
<path style="fill:#edf1f1; stroke:none;" d="M38 78C28.4383 77.9198 24.5784 74.7071 21 66C29.3746 71.9822 40.2929 76.0556 47 65L26 56.6026L9 57L9 56C14.026 55.0669 22.0408 56.5645 25 52L8 52L8 51L24 51C24.1715 47.0658 25.8491 27.7102 28.4483 26.071C31.6869 24.0285 36.5085 27.7172 40 27.7253C51.2397 27.7513 61.5771 28.1542 72 24L75 50L92 51L92 52L74 53L91 56L91 57L74 56.5995L53 65C56.3504 70.3805 60.4606 73.2248 61.5602 80C62.0619 83.0914 60.6228 90.9558 63.6034 92.8681C70.3416 97.1912 84.8743 81.4681 87.9059 77C99.7473 59.547 99.0035 34.9526 84.8156 19.0039C50.0218 -20.1082 -13.8475 22.7602 7.90123 70C11.8354 78.5453 18.8679 85.716 27 90.3233C29.2747 91.6121 34.6211 95.058 36.9722 92.3534C39.4729 89.4767 38 81.6035 38 78z"/>
<path style="fill:#e5f7f7; stroke:none;" d="M59 4L60 5L59 4z"/>
<path style="fill:#f7f7f8; stroke:none;" d="M36 5L37 6L36 5z"/>
<path style="fill:#e5f7f7; stroke:none;" d="M63 5L64 6L63 5z"/>
<path style="fill:#f7f7f8; stroke:none;" d="M33 6L34 7L33 6M66 6L67 7L66 6M25 10L26 11L25 10z"/>
<path style="fill:#e5f7f7; stroke:none;" d="M74 10L75 11L74 10z"/>
<path style="fill:#f7f7f8; stroke:none;" d="M22 12L23 13L22 12M77 12L78 13L77 12M12 22L13 23L12 22M87 22L88 23L87 22z"/>
<path style="fill:#e8e8f9; stroke:none;" d="M71 24L72 25L71 24z"/>
<path style="fill:#e5f7f7; stroke:none;" d="M10 25L11 26L10 25z"/>
<path style="fill:#f7f7f8; stroke:none;" d="M89 25L90 26L89 25M49 26L50 27L49 26z"/>
<path style="fill:#e5f7f7; stroke:none;" d="M50 26L51 27L50 26z"/>
<path style="fill:#e8e8f9; stroke:none;" d="M26 27L27 28L26 27z"/>
<path style="fill:#f7f7f8; stroke:none;" d="M42 27L43 28L42 27M57 27L58 28L57 27z"/>
<path style="fill:#e5f7f7; stroke:none;" d="M38 28L39 29L38 28z"/>
<path style="fill:#f7f7f8; stroke:none;" d="M39 28L40 29L39 28z"/>
<path style="fill:#e5f7f7; stroke:none;" d="M60 28L61 29L60 28z"/>
<path style="fill:#e8e8f9; stroke:none;" d="M73 29L74 30L73 29z"/>
<path style="fill:#f7f7f8; stroke:none;" d="M26 30L27 31L26 30M6 33L7 34L6 33M93 33L94 34L93 33M72 35L73 36L72 35M5 36L6 37L5 36z"/>
<path style="fill:#e8e8f9; stroke:none;" d="M27 36L28 37L27 36z"/>
<path style="fill:#f7f7f8; stroke:none;" d="M94 36L95 37L94 36M26 39L27 40L26 39z"/>
<path style="fill:#e5f7f7; stroke:none;" d="M4 40L5 41L4 40M95 40L96 41L95 40z"/>
<path style="fill:#f7f7f8; stroke:none;" d="M25 41L26 42L25 41M24 46L25 47L24 46M24.3333 49.6667L24.6667 50.3333L24.3333 49.6667M78.6667 50.3333L79.3333 50.6667L78.6667 50.3333z"/>
<path style="fill:#47714d; stroke:none;" d="M80 50L80 51L91 52L80 50z"/>
<path style="fill:#e8e8f9; stroke:none;" d="M89 50L90 51L89 50z"/>
<path style="fill:#e5f7f7; stroke:none;" d="M8 51L9 52L8 51z"/>
<path style="fill:#e8e8f9; stroke:none;" d="M77 51L78 52L77 51M79 51L80 52L79 51M86 51L87 52L86 51z"/>
<path style="fill:#e5f7f7; stroke:none;" d="M91 51L92 52L91 51z"/>
<path style="fill:#e8e8f9; stroke:none;" d="M74 52L75 53L74 52z"/>
<path style="fill:#f7f7f8; stroke:none;" d="M25 53L26 54L25 53z"/>
<path style="fill:#e8e8f9; stroke:none;" d="M24 54L25 55L24 54M75 54L76 55L75 54M77 54L78 55L77 54M11 55L12 56L11 55z"/>
<path style="fill:#f7f7f8; stroke:none;" d="M88 55L89 56L88 55z"/>
<path style="fill:#47714d; stroke:none;" d="M9 56L9 57L12 57L9 56z"/>
<path style="fill:#f7f7f8; stroke:none;" d="M72 56L73 57L72 56z"/>
<path style="fill:#e8e8f9; stroke:none;" d="M88 56L89 57L88 56z"/>
<path style="fill:#47714d; stroke:none;" d="M89.6667 56.3333L90.3333 56.6667L89.6667 56.3333z"/>
<path style="fill:#f7f7f8; stroke:none;" d="M4 59L5 60L4 59M95 59L96 60L95 59M4 61L5 62L4 61M32 61L33 62L32 61z"/>
<path style="fill:#e8e8f9; stroke:none;" d="M65 62L66 63L65 62z"/>
<path style="fill:#f7f7f8; stroke:none;" d="M5 63L6 64L5 63M94 63L95 64L94 63M59 64L60 65L59 64z"/>
<path style="fill:#47714d; stroke:none;" d="M20 65L21 66L20 65z"/>
<path style="fill:#e5f7f7; stroke:none;" d="M47 65L48 66L47 65z"/>
<path style="fill:#e8e8f9; stroke:none;" d="M52.3333 65.6667L52.6667 66.3333L52.3333 65.6667z"/>
<path style="fill:#f7f7f8; stroke:none;" d="M6.33333 66.6667L6.66667 67.3333L6.33333 66.6667z"/>
<path style="fill:#47714d; stroke:none;" d="M21 66L22 67L21 66z"/>
<path style="fill:#f7f7f8; stroke:none;" d="M22 66L23 67L22 66z"/>
<path style="fill:#e8e8f9; stroke:none;" d="M47 66L48 67L47 66z"/>
<path style="fill:#f7f7f8; stroke:none;" d="M93 66L94 67L93 66z"/>
<path style="fill:#e5f7f7; stroke:none;" d="M21 67L22 68L21 67M24 68L25 69L24 68M43 68L44 69L43 68M56 68L57 69L56 68z"/>
<path style="fill:#e8e8f9; stroke:none;" d="M92 68L93 69L92 68M22 69L23 70L22 69z"/>
<path style="fill:#e5f7f7; stroke:none;" d="M57 69L58 70L57 69z"/>
<path style="fill:#e8e8f9; stroke:none;" d="M26 70L27 71L26 70M59 72L60 73L59 72M90 72L91 73L90 72M10 74L11 75L10 74M24 74L25 75L24 74M60 74L61 75L60 74M89 74L90 75L89 74z"/>
<path style="fill:#f7f7f8; stroke:none;" d="M25 75L26 76L25 75z"/>
<path style="fill:#e8e8f9; stroke:none;" d="M12 77L13 78L12 77M30 77L31 78L30 77M87 77L88 78L87 77M13 78L14 79L13 78M38 78L39 79L38 78z"/>
<path style="fill:#f7f7f8; stroke:none;" d="M13 79L14 80L13 79z"/>
<path style="fill:#e8e8f9; stroke:none;" d="M21 86L22 87L21 86M22 87L23 88L22 87M77 87L78 88L77 87z"/>
<path style="fill:#f7f7f8; stroke:none;" d="M23 88L24 89L23 88z"/>
<path style="fill:#e8e8f9; stroke:none;" d="M25 89L26 90L25 89M74 89L75 90L74 89M27 90L28 91L27 90M72 90L73 91L72 90M31 92L32 93L31 92M68 92L69 93L68 92z"/>
<path style="fill:#f7f7f8; stroke:none;" d="M33 93L34 94L33 93M66 93L67 94L66 93M65 94L66 95L65 94z"/>
</svg>
