<?xml version="1.0" standalone="yes"?>
<svg xmlns="http://www.w3.org/2000/svg" width="100" height="100">
<path style="fill:#010101; stroke:none;" d="M0 0L0 100L100 100L100 0L0 0z"/>
<path style="fill:#333333; stroke:none;" d="M25 6.52932C1.54603 11.9419 6 38.9805 6 57C6 66.4631 4.87391 75.9011 10.7894 83.9853C20.9835 97.917 40.9595 94 56 94C62.1237 94 69.0021 94.8548 75 93.4707C98.454 88.0581 94 61.0195 94 43C94 33.5369 95.1261 24.0989 89.2106 16.0147C79.0165 2.08298 59.0405 6 44 6C37.8763 6 30.9979 5.14516 25 6.52932z"/>
<path style="fill:#3c3c3c; stroke:none;" d="M16 10L17 11L16 10z"/>
<path style="fill:#272727; stroke:none;" d="M83 10L84 11L83 10M10 16L11 17L10 16M89 16L90 17L89 16z"/>
<path style="fill:#3c3c3c; stroke:none;" d="M73.6667 22.3333L74.3333 22.6667L73.6667 22.3333M71 23L72 24L71 23z"/>
<path style="fill:#010101; stroke:none;" d="M72.6034 24.0818C70.1317 25.8717 72.918 29.7131 75.3966 27.9182C77.8683 26.1283 75.0819 22.2869 72.6034 24.0818z"/>
<path style="fill:#3c3c3c; stroke:none;" d="M76 23L77 24L76 23M70 25L71 26L70 25M76 28L77 29L76 28z"/>
<path style="fill:#272727; stroke:none;" d="M43 29L44 30L43 29z"/>
<path style="fill:#010101; stroke:none;" d="M44 29.5324C17.3314 35.8858 29.1175 76.8719 56 70.4676C82.6686 64.1143 70.8824 23.1281 44 29.5324z"/>
<path style="fill:#3c3c3c; stroke:none;" d="M56 29L57 30L56 29M37 32L38 33L37 32z"/>
<path style="fill:#333333; stroke:none;" d="M44 32.6489C21.5321 39.4369 33.2563 74.2224 56 67.3511C78.4679 60.5631 66.7437 25.7776 44 32.6489z"/>
<path style="fill:#555555; stroke:none;" d="M41 33L42 34L41 33z"/>
<path style="fill:#3c3c3c; stroke:none;" d="M38 35L39 36L38 35M61 35L62 36L61 35M32 37L33 38L32 37M35 38L36 39L35 38M64 38L65 39L64 38z"/>
<path style="fill:#555555; stroke:none;" d="M33 41L34 42L33 41z"/>
<path style="fill:#3c3c3c; stroke:none;" d="M29 43L30 44L29 43M70 43L71 44L70 43z"/>
<path style="fill:#272727; stroke:none;" d="M28.3333 49.6667L28.6667 50.3333L28.3333 49.6667M71.3333 49.6667L71.6667 50.3333L71.3333 49.6667z"/>
<path style="fill:#3c3c3c; stroke:none;" d="M29 56L30 57L29 56z"/>
<path style="fill:#555555; stroke:none;" d="M33 58L34 59L33 58z"/>
<path style="fill:#3c3c3c; stroke:none;" d="M35 61L36 62L35 61z"/>
<path style="fill:#272727; stroke:none;" d="M64 61L65 62L64 61z"/>
<path style="fill:#3c3c3c; stroke:none;" d="M38 64L39 65L38 64z"/>
<path style="fill:#272727; stroke:none;" d="M61 64L62 65L61 64z"/>
<path style="fill:#3c3c3c; stroke:none;" d="M43 70L44 71L43 70M56 70L57 71L56 70M48 71L49 72L48 71z"/>
<path style="fill:#272727; stroke:none;" d="M49.6667 71.3333L50.3333 71.6667L49.6667 71.3333z"/>
<path style="fill:#3c3c3c; stroke:none;" d="M51 71L52 72L51 71z"/>
<path style="fill:#272727; stroke:none;" d="M10 83L11 84L10 83M89 83L90 84L89 83M16 89L17 90L16 89M83 89L84 90L83 89z"/>
</svg>
