<?xml version="1.0" standalone="yes"?>
<svg xmlns="http://www.w3.org/2000/svg" width="100" height="100">
<path style="fill:#010101; stroke:none;" d="M0 0L0 100L100 100L100 0L0 0z"/>
<path style="fill:#3e3e3e; stroke:none;" d="M40 4L41 5L40 4z"/>
<path style="fill:#333333; stroke:none;" d="M41 4.46451C-18.2016 15.1194 0.0362206 106.148 59 95.5355C118.252 84.8715 99.9288 -6.14127 41 4.46451z"/>
<path style="fill:#3e3e3e; stroke:none;" d="M59 4L60 5L59 4M36 5L37 6L36 5z"/>
<path style="fill:#282828; stroke:none;" d="M63 5L64 6L63 5z"/>
<path style="fill:#555555; stroke:none;" d="M33 6L34 7L33 6z"/>
<path style="fill:#282828; stroke:none;" d="M25 10L26 11L25 10z"/>
<path style="fill:#3e3e3e; stroke:none;" d="M74 10L75 11L74 10M22 12L23 13L22 12z"/>
<path style="fill:#282828; stroke:none;" d="M77 12L78 13L77 12M87 22L88 23L87 22z"/>
<path style="fill:#3e3e3e; stroke:none;" d="M31.6667 24.3333L32.3333 24.6667L31.6667 24.3333M10 25L11 26L10 25z"/>
<path style="fill:#010101; stroke:none;" d="M29.3179 26.0324C24.2074 29.3323 29.4901 37.32 34.6821 33.9676C39.7927 30.6677 34.5098 22.68 29.3179 26.0324z"/>
<path style="fill:#282828; stroke:none;" d="M89 25L90 26L89 25z"/>
<path style="fill:#3e3e3e; stroke:none;" d="M26.3333 29.6667L26.6667 30.3333L26.3333 29.6667M37 29L38 30L37 29z"/>
<path style="fill:#555555; stroke:none;" d="M6 33L7 34L6 33z"/>
<path style="fill:#282828; stroke:none;" d="M5 36L6 37L5 36z"/>
<path style="fill:#010101; stroke:none;" d="M28.3179 39.0278C23.8884 41.9716 24.5799 64.2174 26.6034 68.8519C28.0105 72.0746 32.8682 72.8423 35.6821 70.9722C40.1116 68.0284 39.4201 45.7826 37.3966 41.1481C35.9895 37.9254 31.1317 37.1577 28.3179 39.0278M44.3179 39.0278C39.4015 42.2954 39.9359 70.1185 46.0586 71.6775C60.1922 75.2762 48.6884 52.9842 58.054 50.7515C68.708 48.2118 59.1515 80.6294 73.6821 70.9722C77.2391 68.6082 76.075 61.6504 75.9853 58C75.6099 42.7169 68.2788 40.2073 55 39.1204C51.6217 38.8438 47.4911 36.9187 44.3179 39.0278z"/>
<path style="fill:#3e3e3e; stroke:none;" d="M60 38L61 39L60 38M4 40L5 41L4 40M95 40L96 41L95 40z"/>
<path style="fill:#282828; stroke:none;" d="M75 52L76 53L75 52z"/>
<path style="fill:#3e3e3e; stroke:none;" d="M4 59L5 60L4 59z"/>
<path style="fill:#282828; stroke:none;" d="M95 59L96 60L95 59M5 63L6 64L5 63M10 74L11 75L10 74M89 74L90 75L89 74M87 77L88 78L87 77z"/>
<path style="fill:#3e3e3e; stroke:none;" d="M22 87L23 88L22 87z"/>
<path style="fill:#282828; stroke:none;" d="M77 87L78 88L77 87M74 89L75 90L74 89z"/>
<path style="fill:#555555; stroke:none;" d="M36 94L37 95L36 94z"/>
<path style="fill:#282828; stroke:none;" d="M63 94L64 95L63 94M40 95L41 96L40 95M59 95L60 96L59 95z"/>
</svg>
