<?xml version="1.0" standalone="yes"?>
<svg xmlns="http://www.w3.org/2000/svg" width="100" height="100">
<path style="fill:#010101; stroke:none;" d="M0 0L0 100L100 100L100 0L0 0z"/>
<path style="fill:#edf1f1; stroke:none;" d="M10 2L4.26775 19.4244L4 86L26 86L26 98C30.8422 98 37.5633 99.1906 42 96.9722C46.7049 94.6198 49.2951 89.3802 54 87.0278C59.8821 84.0867 67.2731 88.012 73 84.3966C79.5035 80.2909 92.4916 67.9596 95.3966 60.8302C97.401 55.9112 96 48.2483 96 43L96 2L10 2z"/>
<path style="fill:#ffffff; stroke:none;" d="M9 3L10 4L9 3z"/>
<path style="fill:#eceff1; stroke:none;" d="M9 4L10 5L9 4z"/>
<path style="fill:#e9f3f3; stroke:none;" d="M8 6L9 7L8 6z"/>
<path style="fill:#eceff1; stroke:none;" d="M8 7L9 8L8 7M7 10L8 11L7 10z"/>
<path style="fill:#ffffff; stroke:none;" d="M6 11L7 12L6 11z"/>
<path style="fill:#010101; stroke:none;" d="M22 12L22 68L38 68L38 79C42.5575 75.7896 46.4476 69.7099 52 68.3179C59.175 66.5191 68.4595 70.5256 75 66.3966C91.9591 55.6903 86 29.3753 86 12L22 12z"/>
<path style="fill:#e9f3f3; stroke:none;" d="M5 14L6 15L5 14z"/>
<path style="fill:#eceff1; stroke:none;" d="M5 15L6 16L5 15M4 18L5 19L4 18z"/>
<path style="fill:#edf1f1; stroke:none;" d="M40 26L40 54L52 54L52 26L40 26M60 26L60 54L72 54L72 26L60 26z"/>
<path style="fill:#eceff1; stroke:none;" d="M85 56L86 57L85 56M84 57L85 58L84 57M83 58L84 59L83 58M82 59L83 60L82 59M81 60L82 61L81 60M80 61L81 62L80 61M79 62L80 63L79 62M78 63L79 64L78 63M93 63L94 64L93 63M77 64L78 65L77 64M92 64L93 65L92 64M76 65L77 66L76 65M91 65L92 66L91 65M75 66L76 67L75 66M90 66L91 67L90 66M74 67L75 68L74 67M89 67L90 68L89 67M49 68L50 69L49 68M88 68L89 69L88 68M48 69L49 70L48 69M87 69L88 70L87 69M47 70L48 71L47 70M86 70L87 71L86 70M46 71L47 72L46 71M85 71L86 72L85 71M45 72L46 73L45 72M44 73L45 74L44 73M43 74L44 75L43 74M42 75L43 76L42 75M41 76L42 77L41 76M40 77L41 78L40 77M39 78L40 79L39 78M38 79L39 80L38 79z"/>
</svg>
