<?xml version="1.0" standalone="yes"?>
<svg xmlns="http://www.w3.org/2000/svg" width="100" height="100">
<path style="fill:#010101; stroke:none;" d="M0 0L0 83C11.1052 83 18.9953 80.649 29 76L29 75C20.3689 74.1159 13.4666 68.3045 11 60L16 61L3 40L11 42C4.87044 32.6066 2.49921 26.0436 6 15C20.0632 24.9048 30.6992 35.2122 49 36C45.9033 22.5246 58.3143 9.52628 72 11.186C77.0681 11.8006 81.0506 16.2251 86 16.3966C90.1143 16.5392 94.5519 13.9604 98 12L92 23L100 21L100 0L0 0z"/>
<path style="fill:#333333; stroke:none;" d="M49 36C29.9409 34.4832 21.7701 22.3541 6 15C1.91807 24.6736 4.12923 34.3405 11 42L3 40C5.29082 49.2738 7.85913 55.65 17 60L17 61L11 60C12.7288 68.9352 20.2251 74.2281 29 75L29 76L0 83C6.37568 90.4366 19.5656 92.8839 29 92.9961C52.8936 93.2804 75.334 81.8181 84.9853 59C88.4026 50.9208 87.3629 40.3307 91.0278 33C93.298 28.459 97.8207 25.6732 100 21L92 23L98 13C94.1181 13.6684 89.9188 16.4252 86 16.1914C81.4144 15.9177 77.749 11.784 73 11.1852C59.0189 9.42226 44.756 21.2282 49 36z"/>
<path style="fill:#292929; stroke:none;" d="M97 12L98 13L97 12z"/>
<path style="fill:#3d3d3d; stroke:none;" d="M82 15L83 16L82 15z"/>
<path style="fill:#292929; stroke:none;" d="M87 16L88 17L87 16z"/>
<path style="fill:#3d3d3d; stroke:none;" d="M51 20L52 21L51 20z"/>
<path style="fill:#292929; stroke:none;" d="M93 20L94 21L93 20z"/>
<path style="fill:#3d3d3d; stroke:none;" d="M92 21L93 22L92 21z"/>
<path style="fill:#010101; stroke:none;" d="M99 23C87.551 34.4578 90.3509 49.0446 82.6867 63C71.2233 83.8733 47.5882 95.7835 24 92.7106C15.4107 91.5917 8.15707 87.349 0 85L0 100L100 100L100 47L99 23z"/>
<path style="fill:#555555; stroke:none;" d="M20 26L21 27L20 26z"/>
<path style="fill:#292929; stroke:none;" d="M48 28L49 29L48 28M25 29L26 30L25 29z"/>
<path style="fill:#3d3d3d; stroke:none;" d="M27 30L28 31L27 30M4 31L5 32L4 31M6 40L7 41L6 40M3 41L4 42L3 41M9 41L10 42L9 41z"/>
<path style="fill:#292929; stroke:none;" d="M88 48L89 49L88 48z"/>
<path style="fill:#555555; stroke:none;" d="M12 57L13 58L12 57z"/>
<path style="fill:#292929; stroke:none;" d="M85 57L86 58L85 57z"/>
<path style="fill:#3d3d3d; stroke:none;" d="M16 60L17 61L16 60M81 65L82 66L81 65z"/>
<path style="fill:#292929; stroke:none;" d="M13 66L14 67L13 66z"/>
<path style="fill:#3d3d3d; stroke:none;" d="M18 71L19 72L18 71z"/>
<path style="fill:#555555; stroke:none;" d="M76 72L77 73L76 72M24 74L25 75L24 74z"/>
<path style="fill:#3d3d3d; stroke:none;" d="M25 77L26 78L25 77z"/>
<path style="fill:#292929; stroke:none;" d="M16 81L17 82L16 81M12 82L13 83L12 82z"/>
<path style="fill:#3d3d3d; stroke:none;" d="M64 83L65 84L64 83z"/>
<path style="fill:#555555; stroke:none;" d="M0 84L1 85L0 84z"/>
<path style="fill:#3d3d3d; stroke:none;" d="M59 86L60 87L59 86M57 87L58 88L57 87M52 89L53 90L52 89z"/>
<path style="fill:#292929; stroke:none;" d="M17 91L18 92L17 91M22 92L23 93L22 92z"/>
<path style="fill:#3d3d3d; stroke:none;" d="M40 92L41 93L40 92z"/>
</svg>
