<?xml version="1.0" standalone="yes"?>
<svg xmlns="http://www.w3.org/2000/svg" width="100" height="100">
<path style="fill:#010101; stroke:none;" d="M0 0L0 100L100 100L100 0L0 0z"/>
<path style="fill:#333333; stroke:none;" d="M4 86L26 86L26 98C30.585 98 36.7934 99.0755 41 96.9722C45.7049 94.6198 48.2951 89.3802 53 87.0278C59.1387 83.9584 67.0345 88.2395 72.9606 84.4005C79.2086 80.3529 93.111 67.6797 95.4861 60.7145C97.3299 55.3074 96 47.6678 96 42L96 2L34 2C28.2845 2 15.2984 -0.420753 10.5602 3.02778C5.2966 6.8587 4.00227 20.1078 4 26L4 86z"/>
<path style="fill:#2f2f2f; stroke:none;" d="M8 6L9 7L8 6z"/>
<path style="fill:#2b2b2b; stroke:none;" d="M6 11L7 12L6 11z"/>
<path style="fill:#353535; stroke:none;" d="M6.33333 12.6667L6.66667 13.3333L6.33333 12.6667z"/>
<path style="fill:#010101; stroke:none;" d="M22 12L22 68L38 68L38 79C42.5575 75.7896 46.4476 69.7099 52 68.3179C59.175 66.5191 68.4595 70.5256 75 66.3966C91.9591 55.6903 86 29.3753 86 12L22 12z"/>
<path style="fill:#2f2f2f; stroke:none;" d="M5 14L6 15L5 14z"/>
<path style="fill:#333333; stroke:none;" d="M40 26L40 54L52 54L52 26L40 26M60 26L60 54L72 54L72 26L60 26z"/>
<path style="fill:#353535; stroke:none;" d="M85 56L86 57L85 56M84 57L85 58L84 57M83 58L84 59L83 58M82 59L83 60L82 59M81 60L82 61L81 60M80 61L81 62L80 61M79 62L80 63L79 62M94 62L95 63L94 62M78 63L79 64L78 63M77 64L78 65L77 64M76 65L77 66L76 65M75 66L76 67L75 66M74 67L75 68L74 67M49 68L50 69L49 68M88 68L89 69L88 68M48 69L49 70L48 69M87 69L88 70L87 69M47 70L48 71L47 70M86 70L87 71L86 70M46 71L47 72L46 71M85 71L86 72L85 71M45 72L46 73L45 72M84 72L85 73L84 72M44 73L45 74L44 73M83 73L84 74L83 73M43 74L44 75L43 74M82 74L83 75L82 74M42 75L43 76L42 75M41 76L42 77L41 76M40 77L41 78L40 77M39 78L40 79L39 78M38 79L39 80L38 79M77 79L78 80L77 79M52 86L53 87L52 86M51 87L52 88L51 87M50 88L51 89L50 88M49 89L50 90L49 89M48 90L49 91L48 90M47 91L48 92L47 91M46 92L47 93L46 92M45 93L46 94L45 93M44 94L45 95L44 94M43 95L44 96L43 95M42 96L43 97L42 96M41 97L42 98L41 97z"/>
</svg>
