<?xml version="1.0" standalone="yes"?>
<svg xmlns="http://www.w3.org/2000/svg" width="100" height="100">
<path style="fill:#010101; stroke:none;" d="M0 0L0 100L100 100L100 0L0 0z"/>
<path style="fill:#363636; stroke:none;" d="M43.6667 8.33334L44.3333 8.66666L43.6667 8.33334z"/>
<path style="fill:#333333; stroke:none;" d="M14 73L17 74C17.8035 78.7053 21.2947 82.1965 26 83C32.7091 93.4487 61.1518 96.4506 69 86C76.2321 85.7388 85.4053 76.1124 86 69C96.1542 61.3731 93.7021 32.4533 83 26C84.6781 20.9656 76.3649 17.6171 73 15C59.803 4.73567 35.4019 5.86499 24 16C13.6411 25.2079 2.27225 45.8534 9 62C10.6043 65.8504 14.4457 71.2172 14 73z"/>
<path style="fill:#363636; stroke:none;" d="M48 8L49 9L48 8M51 8L52 9L51 8M55.6667 8.33334L56.3333 8.66666L55.6667 8.33334M35.6667 10.3333L36.3333 10.6667L35.6667 10.3333M64 10L65 11L64 10M33 11L34 12L33 11M32 12L33 13L32 12M27.6667 14.3333L28.3333 14.6667L27.6667 14.3333M73 15L74 16L73 15M23 17L24 18L23 17M48 17L49 18L48 17z"/>
<path style="fill:#010101; stroke:none;" d="M40 33L60 33C55.7869 15.2214 44.2131 15.2214 40 33z"/>
<path style="fill:#363636; stroke:none;" d="M22 18L23 19L22 18M46 18L47 19L46 18M45 19L46 20L45 19M55.3333 20.6667L55.6667 21.3333L55.3333 20.6667M44 21L45 22L44 21M18 22L19 23L18 22z"/>
<path style="fill:#010101; stroke:none;" d="M22 33L31 33L34 22L22 33z"/>
<path style="fill:#363636; stroke:none;" d="M43 22L44 23L43 22z"/>
<path style="fill:#010101; stroke:none;" d="M66 22L69 33L78 33L66 22z"/>
<path style="fill:#363636; stroke:none;" d="M17 23L18 24L17 23M33 23L34 24L33 23M69.6667 23.3333L70.3333 23.6667L69.6667 23.3333z"/>
<path style="fill:#555555; stroke:none;" d="M70 24L71 25L70 24z"/>
<path style="fill:#363636; stroke:none;" d="M27 25L28 26L27 25M32 25L33 26L32 25z"/>
<path style="fill:#555555; stroke:none;" d="M42 25L43 26L42 25M57 25L58 26L57 25z"/>
<path style="fill:#282828; stroke:none;" d="M67 25L68 26L67 25z"/>
<path style="fill:#363636; stroke:none;" d="M83 25L84 26L83 25M67 26L68 27L67 26M73 26L74 27L73 26M58 27L59 28L58 27M24 28L25 29L24 28M75 28L76 29L75 28M59.3333 29.6667L59.6667 30.3333L59.3333 29.6667M68 29L69 30L68 29z"/>
<path style="fill:#555555; stroke:none;" d="M75 29L76 30L75 29z"/>
<path style="fill:#363636; stroke:none;" d="M86 29L87 30L86 29M76 30L77 31L76 30M12 31L13 32L12 31M77 31L78 32L77 31M87 31L88 32L87 31M39 32L40 33L39 32M78 32L79 33L78 32M11 33L12 34L11 33M88 34L89 35L88 34M10.3333 35.6667L10.6667 36.3333L10.3333 35.6667M89 35L90 36L89 35M90 39L91 40L90 39z"/>
<path style="fill:#010101; stroke:none;" d="M18 42L18 58L29 58L29 42L18 42M38 42L38 58L62 58L62 42L38 42M71 42L71 58L82 58L82 42L71 42z"/>
<path style="fill:#363636; stroke:none;" d="M8.33333 43.6667L8.66667 44.3333L8.33333 43.6667M29 44L30 45L29 44M37 44L38 45L37 44z"/>
<path style="fill:#282828; stroke:none;" d="M17 45L18 46L17 45z"/>
<path style="fill:#363636; stroke:none;" d="M62 45L63 46L62 45z"/>
<path style="fill:#282828; stroke:none;" d="M82 45L83 46L82 45z"/>
<path style="fill:#363636; stroke:none;" d="M62 47L63 48L62 47M29 48L30 49L29 48M16 49L17 50L16 49M91.3333 49.6667L91.6667 50.3333L91.3333 49.6667M29 51L30 52L29 51M62 52L63 53L62 52z"/>
<path style="fill:#282828; stroke:none;" d="M17 54L18 55L17 54z"/>
<path style="fill:#363636; stroke:none;" d="M62 54L63 55L62 54z"/>
<path style="fill:#282828; stroke:none;" d="M82 54L83 55L82 54z"/>
<path style="fill:#363636; stroke:none;" d="M8.33333 55.6667L8.66667 56.3333L8.33333 55.6667M82.3333 55.6667L82.6667 56.3333L82.3333 55.6667M29 56L30 57L29 56M70 57L71 58L70 57M90 58L90 62L91 62L90 58M10 63L11 64L10 63M89 63L90 64L89 63z"/>
<path style="fill:#282828; stroke:none;" d="M10 64L11 65L10 64M89 64L90 65L89 64z"/>
<path style="fill:#363636; stroke:none;" d="M88 66L89 67L88 66z"/>
<path style="fill:#010101; stroke:none;" d="M22 67L34 78L31 67L22 67M40 67C44.2131 84.7786 55.7869 84.7786 60 67L40 67M69 67L66 78L78 67L69 67z"/>
<path style="fill:#363636; stroke:none;" d="M78 67L79 68L78 67M22 68L23 69L22 68M59.3333 69.6667L59.6667 70.3333L59.3333 69.6667M76 69L77 70L76 69M86 69L87 70L86 69M68 70L69 71L68 70z"/>
<path style="fill:#555555; stroke:none;" d="M75 70L76 71L75 70z"/>
<path style="fill:#363636; stroke:none;" d="M14 71L15 72L14 71M25 72L26 73L25 72M58 72L59 73L58 72M74 72L75 73L74 72M85 72L86 73L85 72M15 73L16 74L15 73M67 73L68 74L67 73M16 74L17 75L16 74M32 74L33 75L32 74z"/>
<path style="fill:#555555; stroke:none;" d="M42 74L43 75L42 74M57 74L58 75L57 74z"/>
<path style="fill:#282828; stroke:none;" d="M67 74L68 75L67 74z"/>
<path style="fill:#363636; stroke:none;" d="M72 74L73 75L72 74M28 75L31 77L31 76L28 75z"/>
<path style="fill:#555555; stroke:none;" d="M29 75L30 76L29 75z"/>
<path style="fill:#363636; stroke:none;" d="M33.3333 75.6667L33.6667 76.3333L33.3333 75.6667z"/>
<path style="fill:#555555; stroke:none;" d="M70 75L71 76L70 75z"/>
<path style="fill:#363636; stroke:none;" d="M83 75L84 76L83 75M31 77L32 78L31 77M44.3333 78.6667L44.6667 79.3333L44.3333 78.6667M55 78L56 79L55 78M66 78L67 79L66 78M80 78L81 79L80 78M78 80L79 81L78 80M48 82L49 83L48 82M52 82L53 83L52 82M25 83L26 84L25 83M75 83L76 84L75 83z"/>
<path style="fill:#282828; stroke:none;" d="M27 85L28 86L27 85z"/>
<path style="fill:#363636; stroke:none;" d="M29 86L30 87L29 86M69 86L70 87L69 86M34 88L35 89L34 88M66 88L67 89L66 88M35 89L36 90L35 89M63 89L64 90L63 89z"/>
<path style="fill:#282828; stroke:none;" d="M64 89L65 90L64 89z"/>
<path style="fill:#363636; stroke:none;" d="M39 90L40 91L39 90M58 90L59 91L58 90M60.6667 90.3333L61.3333 90.6667L60.6667 90.3333M53 91L54 92L53 91z"/>
</svg>
