<?xml version="1.0" standalone="yes"?>
<svg xmlns="http://www.w3.org/2000/svg" width="100" height="100">
<path style="fill:#010101; stroke:none;" d="M0 0L0 100L100 100L100 0L0 0z"/>
<path style="fill:#edf1f1; stroke:none;" d="M43 8.46374C-10.7514 17.9649 3.5846 101.149 57 91.5355C110.658 81.8783 96.4267 -0.980019 43 8.46374z"/>
<path style="fill:#e9e9f9; stroke:none;" d="M38 9L39 10L38 9M61 9L62 10L61 9M64 10L65 11L64 10z"/>
<path style="fill:#f8f9f9; stroke:none;" d="M69 12L70 13L69 12z"/>
<path style="fill:#e9f5f5; stroke:none;" d="M72 14L73 15L72 14z"/>
<path style="fill:#e9e9f9; stroke:none;" d="M24 16L25 17L24 16M75 16L76 17L75 16z"/>
<path style="fill:#010101; stroke:none;" d="M40 33L60 33C54.8738 15.3208 45.1262 15.3208 40 33z"/>
<path style="fill:#e9e9f9; stroke:none;" d="M33 21L34 22L33 21z"/>
<path style="fill:#010101; stroke:none;" d="M32 22L22 33C28.6498 32.9765 34.2846 29.7225 32 22z"/>
<path style="fill:#f8f9f9; stroke:none;" d="M33 22L34 23L33 22M66 22L67 23L66 22z"/>
<path style="fill:#010101; stroke:none;" d="M67 22C68.1473 29.7977 69.9014 32.9714 78 33L67 22z"/>
<path style="fill:#e9f5f5; stroke:none;" d="M30 23L31 24L30 23z"/>
<path style="fill:#f8f9f9; stroke:none;" d="M43 23L44 24L43 23M56 23L57 24L56 23z"/>
<path style="fill:#e9f5f5; stroke:none;" d="M69 23L70 24L69 23z"/>
<path style="fill:#e9e9f9; stroke:none;" d="M16 24L17 25L16 24z"/>
<path style="fill:#f8f9f9; stroke:none;" d="M29 24L30 25L29 24M70 24L71 25L70 24z"/>
<path style="fill:#e9e9f9; stroke:none;" d="M83 24L84 25L83 24z"/>
<path style="fill:#f8f9f9; stroke:none;" d="M42 25L43 26L42 25M57 25L58 26L57 25z"/>
<path style="fill:#e9e9f9; stroke:none;" d="M67 25L68 26L67 25z"/>
<path style="fill:#e9f5f5; stroke:none;" d="M14 27L15 28L14 27z"/>
<path style="fill:#f8f9f9; stroke:none;" d="M31 28L32 29L31 28M68 28L69 29L68 28M24 29L25 30L24 29M75 29L76 30L75 29z"/>
<path style="fill:#e9f5f5; stroke:none;" d="M23 30L24 31L23 30M76 30L77 31L76 30z"/>
<path style="fill:#f8f9f9; stroke:none;" d="M40 31L41 32L40 31M59 31L60 32L59 31M30 32L31 33L30 32M69 32L70 33L69 32z"/>
<path style="fill:#e9e9f9; stroke:none;" d="M89 35L90 36L89 35M9 38L10 39L9 38M90 38L91 39L90 38z"/>
<path style="fill:#f8f9f9; stroke:none;" d="M8 42L9 43L8 42z"/>
<path style="fill:#010101; stroke:none;" d="M18 42L18 58L29 58L29 42L18 42M38 42L38 58L62 58L62 42L38 42M71 42L71 58L82 58L82 42L71 42z"/>
<path style="fill:#f8f9f9; stroke:none;" d="M91 42L92 43L91 42z"/>
<path style="fill:#e9e9f9; stroke:none;" d="M91 43L92 44L91 43z"/>
<path style="fill:#e9f5f5; stroke:none;" d="M17 45L18 46L17 45M82 45L83 46L82 45M17 54L18 55L17 54M82 54L83 55L82 54z"/>
<path style="fill:#e9e9f9; stroke:none;" d="M91 56L92 57L91 56z"/>
<path style="fill:#f8f9f9; stroke:none;" d="M8 57L9 58L8 57M91 57L92 58L91 57z"/>
<path style="fill:#e9e9f9; stroke:none;" d="M9 61L10 62L9 61M90 61L91 62L90 61M10 64L11 65L10 64M89 64L90 65L89 64z"/>
<path style="fill:#010101; stroke:none;" d="M22 67L33 78C31.8527 70.2023 30.0986 67.0286 22 67z"/>
<path style="fill:#f8f9f9; stroke:none;" d="M30 67L31 68L30 67z"/>
<path style="fill:#010101; stroke:none;" d="M40 67C45.1262 84.6792 54.8738 84.6792 60 67L40 67z"/>
<path style="fill:#f8f9f9; stroke:none;" d="M69 67L70 68L69 67z"/>
<path style="fill:#010101; stroke:none;" d="M67 78L78 67C69.9014 67.0286 68.1473 70.2023 67 78z"/>
<path style="fill:#f8f9f9; stroke:none;" d="M40 68L41 69L40 68M59 68L60 69L59 68z"/>
<path style="fill:#e9f5f5; stroke:none;" d="M23 69L24 70L23 69M76 69L77 70L76 69z"/>
<path style="fill:#f8f9f9; stroke:none;" d="M24 70L25 71L24 70M75 70L76 71L75 70M31 71L32 72L31 71M68 71L69 72L68 71z"/>
<path style="fill:#e9f5f5; stroke:none;" d="M14 72L15 73L14 72z"/>
<path style="fill:#e9e9f9; stroke:none;" d="M32 74L33 75L32 74z"/>
<path style="fill:#f8f9f9; stroke:none;" d="M42 74L43 75L42 74M57 74L58 75L57 74z"/>
<path style="fill:#e9e9f9; stroke:none;" d="M67 74L68 75L67 74M16 75L17 76L16 75z"/>
<path style="fill:#f8f9f9; stroke:none;" d="M29 75L30 76L29 75M70 75L71 76L70 75z"/>
<path style="fill:#e9e9f9; stroke:none;" d="M83 75L84 76L83 75z"/>
<path style="fill:#e9f5f5; stroke:none;" d="M30 76L31 77L30 76z"/>
<path style="fill:#f8f9f9; stroke:none;" d="M43 76L44 77L43 76M56 76L57 77L56 76z"/>
<path style="fill:#e9f5f5; stroke:none;" d="M69 76L70 77L69 76z"/>
<path style="fill:#f8f9f9; stroke:none;" d="M33 77L34 78L33 77M66 77L67 78L66 77z"/>
<path style="fill:#e9e9f9; stroke:none;" d="M24 83L25 84L24 83M75 83L76 84L75 83z"/>
<path style="fill:#e9f5f5; stroke:none;" d="M72 85L73 86L72 85z"/>
<path style="fill:#e9e9f9; stroke:none;" d="M35 89L36 90L35 89M64 89L65 90L64 89M38 90L39 91L38 90M61 90L62 91L61 90z"/>
</svg>
