<?xml version="1.0" standalone="yes"?>
<svg xmlns="http://www.w3.org/2000/svg" width="100" height="100">
<path style="fill:#010101; stroke:none;" d="M0 0L0 100L100 100L100 0L0 0z"/>
<path style="fill:#3d3d3d; stroke:none;" d="M41.6667 18.3333L42.3333 18.6667L41.6667 18.3333z"/>
<path style="fill:#333333; stroke:none;" d="M43 18.4244C34.6536 19.5203 21.0661 17.683 14.2276 23.5139C10.5965 26.6099 10.3711 31.6169 9.84491 36C8.64258 46.0153 5.52673 69.0673 14.2276 76.4861C17.7593 79.4974 23.6018 79.7242 28 80.4097C41.6386 82.5355 56.3205 82.3938 70 80.7137C75.1746 80.0782 82.8818 79.7209 86.6829 75.7215C94.1717 67.8418 91.4929 45.8005 90.1304 36C89.5904 32.1159 89.5421 27.287 86.6829 24.2785C79.1438 16.3461 53.0998 17.0983 43 18.4244z"/>
<path style="fill:#3d3d3d; stroke:none;" d="M57.6667 18.3333L58.3333 18.6667L57.6667 18.3333z"/>
<path style="fill:#292929; stroke:none;" d="M29 19L30 20L29 19M70 19L71 20L70 19z"/>
<path style="fill:#555555; stroke:none;" d="M77 20L78 21L77 20z"/>
<path style="fill:#3d3d3d; stroke:none;" d="M13 23L14 24L13 23z"/>
<path style="fill:#292929; stroke:none;" d="M86 23L87 24L86 23z"/>
<path style="fill:#555555; stroke:none;" d="M12 24L13 25L12 24M87 24L88 25L87 24z"/>
<path style="fill:#3d3d3d; stroke:none;" d="M11 26L12 27L11 26M89 31L90 32L89 31M9 38L10 39L9 38M90 38L91 39L90 38z"/>
<path style="fill:#010101; stroke:none;" d="M43 39L43 61L63 51L63 49L43 39z"/>
<path style="fill:#292929; stroke:none;" d="M63.3333 49.6667L63.6667 50.3333L63.3333 49.6667z"/>
<path style="fill:#3d3d3d; stroke:none;" d="M9 61L10 62L9 61M90 61L91 62L90 61M89 68L90 69L89 68M11 73L12 74L11 73z"/>
<path style="fill:#555555; stroke:none;" d="M12 75L13 76L12 75M87 75L88 76L87 75z"/>
<path style="fill:#292929; stroke:none;" d="M13 76L14 77L13 76M86 76L87 77L86 76z"/>
<path style="fill:#555555; stroke:none;" d="M77 79L78 80L77 79z"/>
<path style="fill:#292929; stroke:none;" d="M41.6667 81.3333L42.3333 81.6667L41.6667 81.3333M57.6667 81.3333L58.3333 81.6667L57.6667 81.3333z"/>
</svg>
